<svg id="Layer_1" data-name="Layer 1" xmlns="http://www.w3.org/2000/svg" xmlns:xlink="http://www.w3.org/1999/xlink" viewBox="0 0 800 160.81"><defs><style>.cls-1,.cls-2{fill:none;}.cls-2{clip-path:url(#clip-path);clip-rule:evenodd;}.cls-3{clip-path:url(#clip-path-3);}.cls-4{clip-path:url(#clip-path-4);}</style><clipPath id="clip-path"><rect class="cls-1" x="33.53" y="6.41" width="729" height="148"/></clipPath><clipPath id="clip-path-3"><polygon class="cls-2" points="614.53 35.78 643.87 6.41 688.55 51.16 733.24 6.41 762.45 35.61 643.87 154.31 614.53 124.97 659.2 80.36 614.53 35.78 614.53 35.78"/></clipPath><clipPath id="clip-path-4"><polygon class="cls-2" points="733.17 96.29 762.2 125.31 733.17 154.33 704.15 125.31 733.17 96.29 733.17 96.29"/></clipPath></defs><title>projectyx</title><g class="cls-3"><rect x="609.53" y="1.41" width="157.91" height="157.9"/></g><g class="cls-4"><rect x="707.65" y="99.79" width="51.04" height="51.04" transform="translate(126.14 555.14) rotate(-45)"/></g><path d="M35,104.41H45.58V87.49H53a19,19,0,0,0,6.19-1,15.76,15.76,0,0,0,5.22-3A13.92,13.92,0,0,0,68,78.67a16.24,16.24,0,0,0,1.33-6.8,17.7,17.7,0,0,0-1-5.83,13.25,13.25,0,0,0-3-4.93,15.09,15.09,0,0,0-5.22-3.42,20.15,20.15,0,0,0-7.63-1.3H35v48ZM45.58,78.7V65.24h6.26a6.32,6.32,0,0,1,4.82,1.91,6.9,6.9,0,0,1,1.8,4.93,6.62,6.62,0,0,1-1.76,4.79,6.33,6.33,0,0,1-4.79,1.84Zm45,25.7h10.58V86.77h6l8.93,17.64h12L117.44,85.18a15.08,15.08,0,0,0,5.8-5.58,15.83,15.83,0,0,0,2.05-8.17,16.24,16.24,0,0,0-1-5.83,13.07,13.07,0,0,0-3.17-4.79,15.17,15.17,0,0,0-5.29-3.24,20.86,20.86,0,0,0-7.34-1.19H90.58v48Zm10.58-26.35V65.31h6.7A6.42,6.42,0,0,1,112.62,67a6.41,6.41,0,0,1-4.75,11Z"/><path d="M179.53,103.69a24.15,24.15,0,0,0,13.18-13.36,27.11,27.11,0,0,0,0-20A24.24,24.24,0,0,0,179.53,57a26.18,26.18,0,0,0-19.8,0,24.24,24.24,0,0,0-13.18,13.32,27.11,27.11,0,0,0,0,20,24.15,24.15,0,0,0,13.18,13.36,26.18,26.18,0,0,0,19.8,0Zm-15.62-9.5a12.81,12.81,0,0,1-4.32-3.31,14.79,14.79,0,0,1-2.7-4.82,18.64,18.64,0,0,1,0-11.66,14.4,14.4,0,0,1,2.7-4.79,12.64,12.64,0,0,1,4.32-3.24,13.42,13.42,0,0,1,5.72-1.19,13.18,13.18,0,0,1,5.69,1.19,12.75,12.75,0,0,1,4.28,3.24,14.43,14.43,0,0,1,2.7,4.79,18.64,18.64,0,0,1,0,11.66,14.84,14.84,0,0,1-2.7,4.82,12.69,12.69,0,0,1-10,4.54,13.07,13.07,0,0,1-5.72-1.22Zm44.24,4.39q5.62,7.13,16.06,7.13a21,21,0,0,0,6.3-.94,15.12,15.12,0,0,0,5.29-2.88,13.86,13.86,0,0,0,3.67-5,17.18,17.18,0,0,0,1.37-7.13V56.38H230V89.07a7.21,7.21,0,0,1-1.76,5.26,6.4,6.4,0,0,1-4.79,1.8,9.59,9.59,0,0,1-4.28-1,12.53,12.53,0,0,1-3.92-3.28l-7.06,6.7Z"/><path d="M263.87,104.41h34.42V94.83H274.74V84.46h17.06V75.25H274.74V65.89h22v-9.5H263.87v48Zm89.28-15.62q-1.08,1.23-2.23,2.41a13.26,13.26,0,0,1-2.63,2.09,13.55,13.55,0,0,1-3.38,1.44,16.63,16.63,0,0,1-4.5.54,13.52,13.52,0,0,1-5.69-1.15,12.89,12.89,0,0,1-4.32-3.17,14.15,14.15,0,0,1-2.77-4.75,18.31,18.31,0,0,1,0-11.77,14.93,14.93,0,0,1,2.77-4.86,12.71,12.71,0,0,1,4.39-3.28,13.84,13.84,0,0,1,5.83-1.19,13.09,13.09,0,0,1,7.06,1.84,17.86,17.86,0,0,1,5.11,4.86l7.42-7.13a22,22,0,0,0-8.32-7.06,26.34,26.34,0,0,0-11.7-2.45,25.19,25.19,0,0,0-10.12,2A23.61,23.61,0,0,0,317.15,70.6a28.72,28.72,0,0,0,0,20,23.45,23.45,0,0,0,5.08,7.92,23.13,23.13,0,0,0,7.81,5.22,26,26,0,0,0,10,1.87,25.36,25.36,0,0,0,6.37-.79,26.81,26.81,0,0,0,5.69-2.16,25.62,25.62,0,0,0,4.79-3.2,22.42,22.42,0,0,0,3.67-3.92l-7.42-6.77Z"/><path d="M393.39,104.41h10.94V66h15.48V56.38h-42V66h15.55v38.45Zm86.54,0h11V84.25L507.8,56.38H496L485.84,74.53,475.4,56.38H463.09l16.85,27.94v20.09Zm43.27,0h12l10.08-16.13,10.37,16.13H569L551.72,79l14.83-22.61h-12l-8.64,14.11-9-14.11H523.57l15.84,23.33-16.2,24.7Z"/></svg>